<?xml version="1.0" encoding="UTF-8"?>
<svg version="1.1" viewBox="0 0 400 97.959" xmlns="http://www.w3.org/2000/svg">
<g fill-rule="evenodd">
<path d="m26 7.038c-0.504 0.091-0.954 0.216-1 0.277s-0.515 0.244-1.042 0.406c-0.527 0.163-0.958 0.355-0.958 0.428 0 0.072-0.308 0.233-0.684 0.357-0.377 0.124-0.719 0.316-0.762 0.427-0.042 0.11-0.203 0.244-0.357 0.296-0.829 0.281-3.282 2.772-3.733 3.793-0.117 0.263-0.263 0.478-0.325 0.478s-0.237 0.375-0.389 0.833c-0.152 0.459-0.333 0.834-0.403 0.834-0.163 0-0.68 2.141-0.68 2.815 0 0.285-0.075 0.518-0.167 0.518-0.108 0-0.167 2.389-0.167 6.833v6.834h-1.321-1.322l-6.345 6.343c-3.987 3.986-6.345 6.464-6.345 6.667-0 0.315 0.191 0.323 7.667 0.323h7.666v21.583 21.584h10 10v-21.584-21.583h7.584 7.583v-6.667-6.666h-7.583-7.584v-2.242c0-2.6 0.194-3.712 0.762-4.37 0.224-0.26 0.447-0.595 0.495-0.745 0.048-0.151 0.216-0.317 0.374-0.37 0.293-0.099 0.887-0.452 1.036-0.615 0.353-0.388 1.829-0.492 6.978-0.492h5.522v-8.25-8.25l-11.792 0.02c-6.982 0.012-12.165 0.087-12.708 0.185m34.833 8.045v8.25h9.834 9.833v-8.25-8.25h-9.833-9.834v8.25m190.33-8.113c-0.266 0.12-0.782 0.554-1.871 1.572-0.368 0.343-0.717 0.625-0.774 0.625-0.119 1e-3 -1.222 0.935-1.862 1.576-0.232 0.233-0.481 0.424-0.552 0.424-0.127 0-0.313 0.158-1.753 1.492-0.401 0.371-0.784 0.674-0.852 0.674s-0.391 0.244-0.718 0.542c-0.692 0.629-1.378 1.205-2.135 1.792-0.296 0.229-0.815 0.679-1.154 1-0.339 0.32-0.657 0.583-0.705 0.583-0.126 0-1.409 1.082-1.928 1.625-0.24 0.252-0.506 0.458-0.589 0.458-0.084 0-0.315 0.169-0.513 0.375-0.199 0.207-0.62 0.577-0.936 0.824s-0.796 0.622-1.066 0.833c-0.27 0.212-0.645 0.541-0.833 0.731-0.189 0.19-0.474 0.394-0.634 0.453-0.277 0.102-0.292 1.831-0.292 33.112v33.006h9.833 9.834v-40.917c0-22.504-0.057-40.911-0.125-40.905-0.069 6e-3 -0.238 0.063-0.375 0.125m-132.79 23.977c-0.665 0.037-1.208 0.139-1.208 0.227s-0.217 0.159-0.483 0.159c-0.619 0-3.075 0.504-3.184 0.654-0.046 0.062-0.458 0.253-0.917 0.423-0.458 0.17-0.871 0.361-0.916 0.425-0.046 0.064-0.381 0.256-0.745 0.427-0.739 0.347-0.734 0.343-2.297 1.808-0.619 0.58-1.126 1.12-1.128 1.2-4e-3 0.231-0.83 0.955-0.83 0.728 0-0.112-0.3-0.495-0.667-0.851-0.367-0.355-0.667-0.709-0.667-0.786s-0.206-0.331-0.458-0.566c-0.252-0.234-0.862-0.922-1.355-1.527l-0.897-1.101h-5.645-5.645v28.25 28.25h9.993 9.993l0.061-17.375c0.061-17.252 0.11-18.773 0.615-19.125 0.065-0.046 0.253-0.44 0.418-0.875 0.164-0.436 0.355-0.792 0.424-0.792 0.068 0 0.168-0.131 0.222-0.292 0.228-0.679 1.919-2.471 2.711-2.871 0.264-0.134 0.599-0.361 0.745-0.505s0.596-0.368 1-0.498 0.776-0.294 0.826-0.365c0.232-0.328 3.309-0.535 4.943-0.332 0.898 0.111 1.723 0.213 1.834 0.227 0.11 0.014 0.172 0.072 0.136 0.129-0.035 0.057 0.311 0.237 0.768 0.399 0.906 0.322 1.006 0.394 2.199 1.567 0.989 0.973 1.141 1.16 1.45 1.791 0.135 0.275 0.299 0.541 0.366 0.59 0.066 0.05 0.254 0.613 0.417 1.25 0.163 0.638 0.344 1.198 0.404 1.243 0.382 0.296 0.474 4.074 0.475 19.459v16.375h9.924 9.924l-0.062-18.959c-0.061-18.534-0.146-21.563-0.61-21.875-0.068-0.045-0.257-0.777-0.42-1.625-0.164-0.848-0.351-1.541-0.417-1.541-0.065 0-0.214-0.319-0.33-0.709-0.19-0.639-0.79-1.944-1.686-3.666-0.179-0.344-0.4-0.625-0.491-0.625s-0.165-0.112-0.165-0.249-0.15-0.342-0.333-0.457c-0.184-0.114-0.334-0.287-0.334-0.384 0-0.379-3.73-3.91-4.13-3.91-0.092 0-0.203-0.094-0.248-0.209-0.044-0.115-0.37-0.314-0.726-0.443-0.355-0.128-0.721-0.326-0.812-0.439-0.092-0.113-0.465-0.3-0.829-0.416s-0.749-0.298-0.856-0.404c-0.107-0.107-0.634-0.292-1.172-0.412-0.537-0.12-1.021-0.288-1.076-0.373-0.103-0.164-2.41-0.622-3.178-0.632-0.245-3e-3 -0.475-0.096-0.512-0.206-0.067-0.201-11.514-0.349-14.419-0.186m70 0c-0.665 0.037-1.208 0.139-1.208 0.227s-0.191 0.159-0.424 0.159c-0.668 0-2.982 0.514-3.088 0.686-0.053 0.086-0.241 0.185-0.417 0.22-0.474 0.095-1.302 0.431-1.401 0.568-0.048 0.065-0.401 0.257-0.786 0.427-0.384 0.169-0.738 0.411-0.786 0.537s-0.176 0.229-0.283 0.229c-0.206 0-2.31 2.001-2.313 2.201-3e-3 0.16-0.836 0.982-0.836 0.825 0-0.069-0.3-0.438-0.666-0.819-0.367-0.382-0.667-0.741-0.667-0.798 0-0.092-0.307-0.438-1.877-2.114-0.253-0.27-0.535-0.631-0.627-0.802-0.156-0.292-0.484-0.31-5.831-0.322l-5.665-0.012v28.254 28.254h9.91 9.91l0.048-17.423c0.034-12.055 0.103-17.46 0.226-17.542 0.097-0.065 0.271-0.55 0.387-1.077 0.115-0.527 0.269-0.958 0.342-0.958 0.072 0 0.267-0.357 0.432-0.792s0.438-0.89 0.606-1.009c0.168-0.12 0.306-0.292 0.306-0.383 0-0.242 1.699-1.847 2.353-2.224 0.31-0.178 0.647-0.406 0.75-0.507 0.102-0.101 0.515-0.29 0.916-0.419 0.402-0.13 0.768-0.285 0.814-0.345 0.43-0.566 6.24-0.582 6.663-0.019 0.048 0.064 0.387 0.217 0.754 0.341 1.589 0.536 4.083 2.957 4.083 3.964 0 0.111 0.118 0.32 0.262 0.465 0.145 0.144 0.388 0.881 0.54 1.636 0.153 0.756 0.353 1.428 0.446 1.494 0.111 0.078 0.185 6.011 0.217 17.458l0.048 17.34h9.91 9.91v-17.658c0-16.981-0.113-21.835-0.514-21.981-0.084-0.031-0.152-0.229-0.152-0.441 0-0.55-0.518-2.988-0.655-3.087-0.064-0.046-0.251-0.59-0.416-1.208-0.165-0.619-0.366-1.125-0.448-1.125-0.081 0-0.152-0.132-0.156-0.292s-0.136-0.528-0.292-0.817c-0.156-0.288-0.423-0.795-0.594-1.125s-0.363-0.6-0.427-0.6-0.222-0.268-0.351-0.597c-0.129-0.328-0.368-0.668-0.531-0.756-0.163-0.087-0.297-0.248-0.297-0.357 0-0.281-3.619-3.79-3.909-3.79-0.133 0-0.301-0.094-0.374-0.21-0.074-0.115-0.434-0.359-0.8-0.541-0.367-0.183-0.721-0.415-0.787-0.517-0.067-0.102-0.46-0.281-0.875-0.397s-0.755-0.268-0.755-0.338c0-0.069-0.506-0.261-1.125-0.426s-1.165-0.358-1.214-0.429c-0.049-0.07-0.836-0.251-1.75-0.401-0.914-0.149-1.811-0.355-1.994-0.456-0.332-0.184-11.868-0.319-14.542-0.171m97.75-2e-3c-0.71 0.038-1.292 0.13-1.292 0.205 0 0.074-0.543 0.186-1.208 0.247-1.51 0.139-3.348 0.464-3.458 0.611-0.046 0.061-0.665 0.239-1.375 0.396-0.711 0.157-1.292 0.337-1.292 0.401s-0.488 0.255-1.083 0.426c-0.596 0.171-1.084 0.369-1.084 0.44s-0.375 0.264-0.833 0.429c-0.458 0.164-0.833 0.349-0.833 0.41s-0.357 0.246-0.792 0.41-0.852 0.399-0.925 0.523c-0.073 0.123-0.242 0.224-0.375 0.224s-0.378 0.131-0.544 0.291c-0.167 0.161-0.56 0.436-0.875 0.612s-0.633 0.42-0.706 0.542-0.238 0.221-0.365 0.221c-0.128 0-0.331 0.135-0.451 0.3-0.119 0.165-0.405 0.428-0.634 0.583-0.643 0.437-3.5 3.337-3.5 3.553 0 0.106-0.187 0.316-0.417 0.466-0.229 0.15-0.416 0.386-0.416 0.524s-0.113 0.295-0.251 0.348-0.378 0.369-0.533 0.703-0.338 0.646-0.406 0.694c-0.158 0.111-0.977 1.315-0.977 1.436 0 0.051-0.165 0.323-0.366 0.606-0.22 0.309-0.27 0.464-0.125 0.388 0.194-0.101 0.192-0.082-9e-3 0.095-0.306 0.27-0.914 1.476-0.889 1.763 0.01 0.114-0.04 0.208-0.111 0.208s-0.23 0.337-0.351 0.75c-0.122 0.413-0.268 0.75-0.324 0.75s-0.244 0.581-0.418 1.292c-0.173 0.71-0.361 1.329-0.418 1.375-0.156 0.127-0.475 1.931-0.596 3.375-0.06 0.71-0.173 1.291-0.251 1.291s-0.142 1.313-0.142 2.917c0 1.833 0.062 2.917 0.167 2.917 0.091 0 0.166 0.26 0.166 0.578 0 0.793 0.508 4.152 0.643 4.255 0.061 0.046 0.251 0.646 0.423 1.333 0.172 0.688 0.363 1.288 0.426 1.334 0.062 0.045 0.246 0.514 0.409 1.042 0.164 0.527 0.367 0.915 0.452 0.862 0.086-0.053 0.136-0.034 0.111 0.042-0.084 0.26 0.565 1.722 0.721 1.626 0.086-0.054 0.143-0.035 0.125 0.04-0.061 0.269 0.227 1.044 0.46 1.237 0.13 0.108 0.363 0.468 0.517 0.799 0.155 0.331 0.416 0.7 0.581 0.819 0.164 0.12 0.299 0.324 0.299 0.453s0.15 0.315 0.333 0.413c0.184 0.098 0.334 0.267 0.334 0.375 0 0.225 0.119 0.36 2.035 2.292 1.849 1.865 2.37 2.333 2.598 2.333 0.103 0 0.26 0.134 0.347 0.297 0.088 0.163 0.428 0.402 0.756 0.531s0.597 0.299 0.597 0.378c0 0.08 0.262 0.254 0.583 0.388s0.584 0.303 0.584 0.375c0 0.073 0.375 0.267 0.833 0.431 0.458 0.165 0.833 0.353 0.833 0.417s0.375 0.252 0.834 0.417c0.458 0.165 0.833 0.35 0.833 0.412 0 0.116 1.773 0.687 2.133 0.687 0.11 0 0.2 0.063 0.2 0.14 0 0.15 2.074 0.694 2.649 0.694 0.193 0 0.351 0.063 0.351 0.141 0 0.15 2.984 0.692 3.812 0.692 0.272 0 0.525 0.094 0.563 0.208 0.054 0.162 1.429 0.209 6.125 0.209 4.697 0 6.071-0.047 6.125-0.209 0.039-0.114 0.298-0.208 0.577-0.208 0.732 0 3.7-0.521 3.798-0.667 0.046-0.068 0.702-0.257 1.459-0.419 0.756-0.163 1.375-0.35 1.375-0.416s0.45-0.247 1-0.401c0.55-0.155 1-0.338 1-0.409 0-0.07 0.412-0.257 0.916-0.416s0.917-0.345 0.917-0.414c0-0.068 0.262-0.219 0.582-0.335 0.319-0.115 0.676-0.3 0.791-0.411 0.116-0.111 0.529-0.343 0.919-0.515 0.389-0.173 0.708-0.374 0.708-0.448 0-0.073 0.256-0.255 0.568-0.403 0.313-0.148 0.699-0.414 0.859-0.591s0.39-0.322 0.51-0.322 0.298-0.15 0.396-0.333 0.267-0.333 0.375-0.333 0.386-0.186 0.619-0.413c3.198-3.118 4.673-4.646 4.673-4.84 0-0.059 0.262-0.428 0.583-0.82 0.321-0.391 0.584-0.798 0.584-0.903s0.078-0.191 0.175-0.191c0.096 0 0.282-0.256 0.412-0.568 0.131-0.312 0.296-0.594 0.367-0.625s0.278-0.357 0.461-0.724c0.182-0.366 0.387-0.708 0.456-0.758 0.068-0.05 0.172-0.332 0.23-0.625l0.107-0.533-8.979 5e-3c-9.109 5e-3 -9.563 0.034-9.563 0.601 0 0.229-2.226 2.394-2.462 2.394-0.112 0-0.204 0.071-0.204 0.159 0 0.087-0.263 0.283-0.584 0.435s-0.583 0.333-0.583 0.402-0.431 0.257-0.958 0.419-1.027 0.357-1.111 0.433c-0.083 0.076-0.702 0.231-1.375 0.345-0.672 0.113-1.223 0.252-1.223 0.309 0 0.132-5.387 0.13-5.5-1e-3 -0.046-0.053-0.645-0.191-1.333-0.305-0.687-0.115-1.272-0.273-1.3-0.351-0.027-0.079-0.196-0.105-0.375-0.058s-0.325 0.018-0.325-0.065c0-0.082-0.338-0.249-0.75-0.371-0.413-0.122-0.75-0.281-0.75-0.353 0-0.073-0.206-0.206-0.458-0.296s-0.684-0.36-0.959-0.599c-0.275-0.24-0.544-0.436-0.599-0.436-0.299-1e-3 -2.484-2.472-2.484-2.809 0-0.106-0.079-0.192-0.175-0.192-0.097 0-0.292-0.281-0.436-0.625-0.143-0.343-0.315-0.662-0.382-0.708s-0.26-0.533-0.429-1.083-0.362-1.039-0.43-1.086c-0.114-0.079-0.648-3.289-0.648-3.894 0-0.248 1.849-0.27 22.353-0.27h22.353l-0.109-1.625c-0.162-2.4-0.446-4.78-0.582-4.875-0.066-0.046-0.258-0.849-0.427-1.785s-0.354-1.673-0.411-1.638c-0.056 0.034-0.236-0.531-0.399-1.257-0.164-0.726-0.354-1.32-0.423-1.32s-0.26-0.45-0.425-1-0.366-1-0.448-1-0.15-0.094-0.152-0.209c-5e-3 -0.248-0.48-1.226-1.156-2.375-0.269-0.458-0.607-1.077-0.751-1.375-0.143-0.298-0.335-0.541-0.425-0.541-0.091 0-0.165-0.094-0.166-0.209-2e-3 -0.216-0.907-1.457-1.495-2.047-0.185-0.187-0.337-0.4-0.337-0.474 0-0.166-4.292-4.437-4.461-4.437-0.067-1e-3 -0.385-0.225-0.706-0.5s-0.634-0.499-0.696-0.5c-0.062 0-0.217-0.104-0.344-0.231-0.211-0.211-0.77-0.545-2.182-1.302-0.29-0.155-0.603-0.346-0.694-0.424-0.092-0.078-0.504-0.277-0.917-0.441-0.412-0.164-0.787-0.35-0.833-0.413s-0.534-0.253-1.084-0.422-1.037-0.361-1.083-0.427c-0.102-0.145-2.187-0.673-2.659-0.673-0.188 0-0.341-0.064-0.341-0.141 0-0.159-3.004-0.693-3.895-0.693-0.318 0-0.602-0.073-0.633-0.162-0.06-0.178-5.711-0.34-7.847-0.226m71.333 0c-0.802 0.037-1.458 0.14-1.458 0.228s-0.26 0.16-0.578 0.16c-0.838 0-4.319 0.504-4.42 0.64-0.047 0.063-0.76 0.25-1.585 0.416-0.825 0.165-1.525 0.37-1.556 0.456-0.03 0.085-0.153 0.155-0.272 0.155-0.306 0-1.988 0.544-2.089 0.676-0.046 0.059-0.477 0.238-0.958 0.396-0.482 0.159-0.875 0.342-0.875 0.408 0 0.067-0.375 0.256-0.834 0.42-0.458 0.165-0.833 0.352-0.833 0.416s-0.338 0.255-0.75 0.425c-0.413 0.17-0.75 0.369-0.75 0.443s-0.281 0.264-0.625 0.424-0.685 0.388-0.758 0.508c-0.074 0.12-0.241 0.217-0.371 0.217-0.131 0-0.361 0.188-0.511 0.417s-0.362 0.417-0.469 0.417c-0.108 0-0.475 0.302-0.815 0.672s-0.618 0.617-0.618 0.549-0.337 0.207-0.75 0.612c-0.412 0.405-0.75 0.801-0.75 0.881s-0.285 0.42-0.634 0.757-0.76 0.8-0.912 1.029c-0.153 0.229-0.545 0.791-0.871 1.25-0.327 0.458-0.7 1.077-0.83 1.375s-0.302 0.541-0.384 0.541-0.248 0.3-0.369 0.667-0.281 0.667-0.355 0.667-0.255 0.412-0.402 0.916c-0.146 0.504-0.321 0.917-0.388 0.917s-0.261 0.563-0.433 1.25c-0.171 0.688-0.364 1.25-0.428 1.25-0.13 0-0.66 2.718-0.66 3.385 0 0.231-0.072 0.446-0.161 0.476-0.088 0.031-0.202 0.956-0.254 2.056s-0.131 2.279-0.175 2.62c-0.118 0.916 0.246 6.204 0.431 6.269 0.087 0.03 0.159 0.269 0.159 0.53 0 0.591 0.441 2.723 0.645 3.12 0.084 0.162 0.281 0.744 0.439 1.294 0.157 0.55 0.352 1.081 0.432 1.181s0.249 0.475 0.376 0.833c0.127 0.359 0.578 1.24 1.002 1.958 0.425 0.718 0.772 1.366 0.772 1.441 0 0.074 0.113 0.178 0.25 0.231 0.138 0.052 0.251 0.192 0.251 0.309 0 0.118 0.225 0.476 0.499 0.797 0.275 0.321 0.5 0.628 0.5 0.682s0.319 0.444 0.709 0.866c0.389 0.422 1.008 1.106 1.375 1.52 0.366 0.414 0.756 0.756 0.866 0.759 0.11 4e-3 0.26 0.112 0.334 0.242 0.183 0.323 1.804 1.598 2.032 1.598 0.101 0 0.184 0.073 0.184 0.162s0.244 0.287 0.542 0.44 0.579 0.325 0.625 0.383c0.186 0.236 1.006 0.681 1.254 0.681 0.146 0 0.224 0.068 0.173 0.15-0.051 0.083 0.282 0.285 0.74 0.45s0.833 0.35 0.833 0.411 0.356 0.245 0.792 0.41c0.435 0.164 0.829 0.347 0.875 0.406 0.104 0.133 1.79 0.673 2.102 0.673 0.127 0 0.231 0.069 0.231 0.153s0.581 0.287 1.292 0.451c0.71 0.165 1.331 0.355 1.379 0.423 0.049 0.068 1.024 0.256 2.167 0.419 1.143 0.162 2.132 0.372 2.198 0.466 0.187 0.27 11.999 0.234 12.089-0.037 0.038-0.114 0.275-0.208 0.526-0.208 0.752 0 3.562-0.506 4.099-0.739 0.275-0.119 0.969-0.311 1.542-0.428 0.573-0.116 1.041-0.262 1.041-0.324 0-0.061 0.525-0.248 1.167-0.414s1.167-0.36 1.167-0.43c0-0.069 0.393-0.255 0.875-0.413 0.481-0.157 0.928-0.372 0.994-0.477 0.065-0.105 0.177-0.193 0.25-0.194 0.3-4e-3 1.307-0.494 1.431-0.696 0.073-0.12 0.227-0.218 0.342-0.218s0.468-0.194 0.784-0.431c0.315-0.237 0.742-0.498 0.949-0.58 0.206-0.081 0.375-0.225 0.375-0.319 0-0.093 0.089-0.17 0.197-0.17 0.109 0 0.578-0.319 1.042-0.708 0.464-0.39 0.986-0.821 1.16-0.959 0.946-0.749 3.246-3.26 3.419-3.731 0.037-0.102 0.206-0.284 0.375-0.403 0.169-0.12 0.307-0.301 0.307-0.403s0.116-0.304 0.259-0.449c0.41-0.418 1.368-2 1.479-2.444 0.056-0.222 0.175-0.403 0.265-0.403s0.163-0.078 0.163-0.174c0-0.095 0.224-0.652 0.497-1.237 0.274-0.585 0.589-1.407 0.702-1.826 0.112-0.42 0.254-0.763 0.315-0.763 0.062 0 0.245-0.694 0.408-1.542s0.348-1.579 0.411-1.625c0.694-0.505 0.697-13.833 3e-3 -13.833-0.064 0-0.211-0.544-0.328-1.209-0.117-0.664-0.346-1.508-0.51-1.875-0.164-0.366-0.384-0.985-0.488-1.375-0.104-0.389-0.248-0.708-0.319-0.708s-0.26-0.413-0.419-0.917-0.354-0.916-0.433-0.916-0.273-0.338-0.431-0.75c-0.157-0.413-0.353-0.75-0.436-0.75-0.082 0-0.198-0.132-0.257-0.292-0.243-0.653-1.282-2.047-2.34-3.141-0.389-0.403-0.708-0.796-0.708-0.874s-0.303-0.397-0.673-0.709-0.992-0.873-1.383-1.247c-0.39-0.373-0.95-0.821-1.244-0.994-0.293-0.173-0.533-0.357-0.533-0.408s-0.282-0.24-0.625-0.421c-0.344-0.18-0.669-0.387-0.722-0.46-0.241-0.329-4.145-2.288-4.56-2.288-0.143 0-0.26-0.071-0.26-0.158s-0.45-0.284-1-0.438c-0.55-0.155-1-0.334-1-0.4 0-0.065-0.656-0.255-1.458-0.421-0.802-0.167-1.496-0.356-1.542-0.422-0.093-0.133-3.534-0.661-4.308-0.661-0.274 0-0.523-0.072-0.553-0.161-0.061-0.176-6.282-0.339-8.681-0.227m-296.62 29.472v28.25h9.834 9.833v-28.25-28.25h-9.833-9.834v28.25m232.26-16.408c0.544 0.097 1.226 0.284 1.515 0.417 0.288 0.132 0.626 0.241 0.75 0.241 0.362 1e-3 2.534 1.148 2.685 1.418 0.077 0.137 0.219 0.248 0.317 0.248 0.209 0 2.139 1.92 2.139 2.128 0 0.079 0.155 0.309 0.343 0.511 0.189 0.203 0.46 0.649 0.603 0.99 0.142 0.342 0.31 0.659 0.372 0.705 0.164 0.119 0.682 2.081 0.682 2.58 0 0.231 0.075 0.42 0.167 0.42 0.091 0 0.166 0.225 0.166 0.5v0.5h-12.556-12.557l0.158-1.042c0.086-0.573 0.218-1.08 0.294-1.127 0.075-0.047 0.227-0.46 0.337-0.917s0.288-0.906 0.395-0.998c0.107-0.091 0.298-0.429 0.425-0.75 0.228-0.579 0.41-0.831 1.129-1.57 0.207-0.211 0.375-0.453 0.375-0.537 0-0.189 0.88-0.969 1.52-1.347 0.264-0.156 0.48-0.331 0.48-0.388s0.299-0.247 0.665-0.423c0.366-0.175 0.666-0.369 0.667-0.431s0.433-0.239 0.96-0.392 0.998-0.342 1.047-0.42c0.253-0.409 5.145-0.632 6.922-0.316m69.911-8e-3c0.486 0.092 1.279 0.355 1.762 0.583 0.484 0.229 0.959 0.416 1.056 0.416s0.177 0.066 0.177 0.146c0 0.081 0.218 0.237 0.484 0.347 0.265 0.11 0.654 0.382 0.862 0.604s0.476 0.403 0.594 0.403 0.304 0.169 0.413 0.375 0.411 0.595 0.672 0.865c0.261 0.269 0.475 0.58 0.475 0.69 0 0.111 0.105 0.241 0.233 0.291 0.128 0.049 0.322 0.357 0.43 0.684s0.259 0.595 0.337 0.595c0.077 0 0.264 0.375 0.417 0.833 0.152 0.459 0.335 0.834 0.407 0.834 0.071 0 0.27 0.637 0.441 1.416 0.17 0.779 0.36 1.417 0.42 1.417 0.227 0 0.555 3.501 0.555 5.917 0 2.415-0.328 5.916-0.555 5.916-0.06 0-0.25 0.638-0.42 1.417-0.171 0.779-0.368 1.417-0.438 1.417s-0.262 0.375-0.427 0.833c-0.164 0.458-0.354 0.833-0.422 0.833-0.067 0-0.174 0.169-0.238 0.375-0.236 0.766-2.578 3.518-3.282 3.857-0.401 0.192-0.876 0.52-0.994 0.685-0.065 0.092-0.177 0.172-0.25 0.177-0.354 0.03-1.547 0.474-1.547 0.576 0 0.225-1.901 0.497-3.473 0.497-1.668 0-3.694-0.275-3.694-0.502 0-0.073-0.15-0.094-0.333-0.046-0.184 0.048-0.334 9e-3 -0.334-0.086 0-0.175-1.132-0.634-1.387-0.563-0.076 0.021-0.097-0.027-0.047-0.107 0.049-0.08-0.114-0.249-0.363-0.374-0.839-0.424-3.111-2.605-3.285-3.154-0.059-0.184-0.16-0.335-0.225-0.335s-0.266-0.336-0.447-0.748-0.383-0.749-0.449-0.75c-0.067-1e-3 -0.241-0.414-0.387-0.918-0.147-0.505-0.327-0.917-0.401-0.917s-0.267-0.694-0.431-1.542c-0.163-0.848-0.353-1.579-0.422-1.625-0.47-0.314-0.469-9.363 1e-3 -9.663 0.075-0.048 0.197-0.499 0.271-1.003 0.075-0.504 0.144-0.955 0.155-1 0.235-1.006 0.326-1.266 0.506-1.446 0.118-0.118 0.265-0.516 0.327-0.884 0.063-0.369 0.205-0.726 0.317-0.795s0.306-0.388 0.431-0.709 0.365-0.717 0.532-0.881 0.304-0.369 0.304-0.454c0-0.249 2.616-2.793 2.995-2.913 0.189-0.06 0.301-0.178 0.249-0.262s0.01-0.112 0.138-0.064c0.127 0.049 0.328-0.026 0.445-0.168 0.118-0.142 0.318-0.258 0.446-0.258 0.127 0 0.553-0.151 0.947-0.336 1.339-0.63 4.476-0.871 6.452-0.496" fill="#4c4c4c"/>
<path d="m291.46 77.289c0.39 0.035 1.027 0.035 1.417 0s0.071-0.064-0.708-0.064c-0.78 0-1.098 0.029-0.709 0.064" fill="#504c4c"/>
</g>
</svg>
