<svg xmlns="http://www.w3.org/2000/svg" xmlns:xlink="http://www.w3.org/1999/xlink" width="121.394" height="41.152" viewBox="0 0 121.394 41.152">
  <defs>
    <clipPath id="clip-path">
      <rect id="Rectangle_179" data-name="Rectangle 179" width="121.394" height="41.152" fill="none"/>
    </clipPath>
  </defs>
  <g id="Group_428" data-name="Group 428" transform="translate(-373.41 -441.286)">
    <g id="Group_427" data-name="Group 427" transform="translate(373.41 441.286)" clip-path="url(#clip-path)">
      <path id="Path_21" data-name="Path 21" d="M373.41,441.286h9.8V455.22s2.944-3.191,10.04-3.191c6.488,0,13.292,5.593,13.292,13.321v16.127h-9.974V467.945c0-4.67-1.4-8.03-5.774-8.03-4.731,0-7.643,2.733-7.643,10.77v10.792H373.41V441.286" transform="translate(-373.41 -441.286)" fill="#b02a2f"/>
      <path id="Path_22" data-name="Path 22" d="M431.082,462.161c-.549-2.967-3.844-5.172-8.219-5.172-3.908,0-7.632,2.36-8.1,5.158Zm9.3,9.614c-1.343,2.8-6.245,9.391-16.8,9.391-14.06,0-17.849-9.333-17.849-15.107,0-8.225,6.765-15.517,17.148-15.517,11.317,0,17.384,8.106,17.674,16.858h-25.9c.175,3.617,2.588,6.994,9.3,6.994a10.507,10.507,0,0,0,6.869-2.619Z" transform="translate(-369.785 -440.248)" fill="#b02a2f"/>
      <rect id="Rectangle_178" data-name="Rectangle 178" width="10.211" height="40.192" transform="translate(73.662)" fill="#b02a2f"/>
      <path id="Path_23" data-name="Path 23" d="M476.329,465.916c0-4.842-3.325-8.109-7.644-8.109-4.434,0-7.645,3.15-7.645,8.169,0,4.667,2.86,8.34,7.645,8.34,4.433,0,7.644-3.791,7.644-8.4m-7.7-15.167c10.906,0,17.442,6.534,17.442,15.167,0,9.568-8.109,15.459-17.442,15.459-11.085,0-17.327-7.585-17.327-15.4,0-8.459,6.944-15.228,17.327-15.228" transform="translate(-364.675 -440.225)" fill="#b02a2f"/>
    </g>
  </g>
</svg>
