<svg xmlns="http://www.w3.org/2000/svg" fill="none" viewBox="0 0 45 48">
  <path fill="#262429" d="M29.247-.006v13.011c-.003.609.12 1.21.361 1.769a4.65 4.65 0 0 0 2.44 2.44 4.443 4.443 0 0 0 3.532-.008 4.656 4.656 0 0 0 1.454-.992c.416-.42.748-.913.982-1.455.242-.553.365-1.15.362-1.754V-.005h6.202v13.01c.005.999-.13 1.993-.4 2.955a10.38 10.38 0 0 1-1.13 2.593 10.976 10.976 0 0 1-1.733 2.163 10.778 10.778 0 0 1-7.51 3.048c-.941.001-1.878-.123-2.786-.371-.89-.24-1.745-.592-2.547-1.046a10.77 10.77 0 0 1-2.193-1.647 10.523 10.523 0 0 1-1.716-2.162 10.724 10.724 0 0 1-1.516-5.533V-.005h6.198ZM6.203 24.162v9.482c-.003.609.12 1.21.363 1.769a4.651 4.651 0 0 0 2.439 2.44 4.448 4.448 0 0 0 3.531-.009 4.638 4.638 0 0 0 1.455-.992c.415-.42.748-.913.982-1.454a4.35 4.35 0 0 0 .362-1.755v-9.482h6.202v9.482c.005.999-.129 1.993-.4 2.954a10.429 10.429 0 0 1-1.131 2.595 10.925 10.925 0 0 1-1.732 2.16A10.8 10.8 0 0 1 16.082 43a10.81 10.81 0 0 1-5.318 1.402 10.539 10.539 0 0 1-2.786-.37 10.792 10.792 0 0 1-4.74-2.693 10.556 10.556 0 0 1-1.717-2.161 10.733 10.733 0 0 1-1.515-5.534v-9.482h6.197Z"/>
  <path fill="#89CDB8" d="m35.692 45.25-.051-.117c-.077-.165-.873-1.372-.873-1.372l-.953-1.49-.954 1.489s-.8 1.207-.873 1.372l-.05.118a2.019 2.019 0 1 0 3.763 0"/>
  <path fill="#262429" d="M6.232 0v8.176h9.055V0h6.249v22.759h-6.25v-8.583H6.233v8.582H0V0h6.232ZM23.281 44.402V20.638l10.543 10.65 10.528-10.65v23.764H38.15v-8.665l-4.325 5.08-4.34-5.08v8.665h-6.203Z"/>
</svg>
