<svg xmlns="http://www.w3.org/2000/svg" viewBox="0 0 102.43 27.53">
  <title>KLAFS Logo</title>
  <path d="M13.44.65h6.36L9.74 11.99l10.63 13.22h-6.65L5.24 14.17h-.07v11.04H0V.65h5.17v10.36h.07L13.44.65zM28.06 21.04h8.68v4.17H22.89V.65h5.17v20.39zM74.75 4.82v5.41h8.78v4.17h-8.78v10.81h-5.17V.65h14.08v4.17h-8.91zM99.12 6.06c-.99-1.24-2.25-2.02-3.97-2.02s-3.24 1.18-3.24 2.77c0 4.14 10.52 2.41 10.52 10.65 0 4.92-3.31 8.41-8.72 8.41-3.66 0-6.33-1.95-8.16-4.79l3.34-3.03c.7 1.89 2.57 3.59 4.78 3.59s3.41-1.66 3.41-3.55c0-2.54-2.53-3.26-4.61-4.01-3.41-1.3-5.91-2.9-5.91-6.71 0-4.07 3.27-7.36 7.74-7.36 2.35 0 5.63 1.08 7.25 2.74l-2.43 3.32ZM67.88 25.22h-6.26L52.97 10l-8.8 15.22h-6.26L52.74.05s9.96 16.51 15.14 25.16"/>
  <path d="M58.61 27.53H47.26l5.48-9.8 5.87 9.8"/>
</svg>
