<?xml version="1.0" encoding="UTF-8"?> <svg xmlns="http://www.w3.org/2000/svg" xmlns:xlink="http://www.w3.org/1999/xlink" version="1.1" id="Layer_1" x="0px" y="0px" viewBox="0 0 1500 323" style="enable-background:new 0 0 1500 323;" xml:space="preserve"> <style type="text/css"> .st0{fill:#2E3237;} </style> <g> <path class="st0" d="M313.73,146.33C287.02,75.25,286.08,5.34,286.04,0.35l-33.89-0.01l-0.08,225.04l-20.88-25.25L65.9,0.27 L0.06,0.25c0,0-0.04,104.6-0.06,145.98c-0.01,25.89,14.56,68.96,17.79,95.73c5.27,43.65,1.59,80.31,1.59,80.31l49.55,0.01 l0.08-225.03l0.33,0.41l85.94,103.91l98.15,118.68c0.02,0.02,0.02,0.03,0.04,0.04l1.71,2.07l42.75,0.02 C298.71,319.86,334.67,202.02,313.73,146.33z"></path> </g> <g> <path class="st0" d="M630.25,288.43c-11.66-25.48-29.35-39.01-29.35-39.01l-157.49-0.06l-36.46,73.05l-35.33-0.01l-39.08-0.01 c0,0,90.07-106.22,99.83-190.59c8.01-69.18,47.76-131.36,47.76-131.36l81.63,0.03l128.28,280.37l19.08,41.69l-39.73-0.01 C669.38,322.5,639.17,307.9,630.25,288.43z M519.8,63.13l-52.01,128.96l80.6,0.03l28.18,0.01l-12.03-27.34l-33.63-76.42 L519.8,63.13z"></path> </g> <g> <path class="st0" d="M947.92,322.6l-21.75-37.26l-48.63-83.31l-94.35-0.04l-0.03,82.25l-0.01,38.28l-42.67-0.02 c0,0,10.53-56.85-18.1-145.83c-23.08-71.71-8.63-176.51-8.63-176.51l39.84,0.02L872.2,0.25c89.98,0.03,134.97,33.61,134.94,100.72 c-0.01,21.67-5.06,39.72-15.14,54.17c-10.09,14.44-25.52,25.72-46.29,33.84l81.21,133.66L947.92,322.6z M866.73,146.51 c23.77,0.01,41.31-3.67,52.6-11.04c11.29-7.37,16.94-19.02,16.94-34.98c0.01-15.95-5.34-27.38-16.01-34.32 c-10.68-6.92-28.21-10.39-52.59-10.4l-84.42-0.03l-0.03,90.74L866.73,146.51z"></path> </g> <g> <path class="st0" d="M1165.22,322.69L1048.98,52.08l-22.24-51.77l80.81,0.03c0,0,43.36,55.48,43.33,157.16 c-0.03,89.96,56.24,119.25,56.24,119.25L1309.35,0.41l78.1,0.03l-19.06,44.28l-119.65,278L1165.22,322.69z"></path> </g> <g> <path class="st0" d="M1427.65,322.79c0,0-16.09-111.93-0.34-156.71c26.19-74.45,0.46-165.61,0.46-165.61l36.12,0.01L1500,0.48 l-0.12,322.33L1427.65,322.79z"></path> </g> </svg> 