<svg width="3226" height="643" viewBox="0 0 3226 643" fill="none" xmlns="http://www.w3.org/2000/svg">
<path fill-rule="evenodd" clip-rule="evenodd" d="M1763.98 565.299C1763.98 568.939 1773.53 573.943 1778.99 573.488C1815.32 572.124 1827.08 572.124 1862.96 573.943C1866.6 573.943 1871.6 563.934 1871.6 558.474C1871.86 551.195 1851.39 553.015 1851.39 533.516V444.732C1851.39 381.491 1810.38 346.914 1736.36 346.914C1674.23 346.914 1632.83 372.847 1632.83 410.154C1632.83 430.173 1642.65 447.527 1673.32 447.527C1703.99 447.527 1713.81 426.598 1713.81 410.154C1713.81 402.81 1709.39 397.155 1709.39 389.161C1709.39 380.711 1718.62 374.212 1733.24 374.212C1755.86 374.212 1764.04 390.071 1764.04 438.622V445.447C1716.73 454.221 1618.8 447.917 1618.8 515.772C1618.8 552.56 1654.34 578.493 1706.72 578.493C1723.3 578.493 1746.24 563.024 1764.11 543.85V565.234L1763.98 565.299ZM1967.59 288.937C1960.76 288.937 1925.67 352.893 1879.2 357.443C1875.56 357.898 1870.56 366.932 1870.56 372.327C1870.56 379.541 1895.58 378.176 1895.58 397.285V503.033C1895.58 548.595 1925.15 578.623 1967.98 578.623C2034.92 578.623 2065.01 517.137 2065.01 502.123C2065.01 498.483 2050.9 494.389 2048.17 497.574C2030.43 518.047 2017.24 526.692 2004.44 526.692C1991.63 526.692 1983.06 518.047 1983.06 492.504V381.296C2002.16 381.751 2029.07 382.206 2040.89 383.116C2051.36 384.026 2055 369.987 2055 356.078C2055 353.348 2053.18 351.268 2048.63 351.268L1983.06 355.168V297.712C1983.06 294.072 1973.05 288.937 1967.59 288.937ZM1524.89 527.212C1503.96 527.212 1486.61 519.087 1475.24 503.618C1518.97 499.068 1590.46 474.11 1590.46 425.883C1590.46 381.816 1545.36 346.784 1486.61 346.784C1418.31 346.784 1368.2 395.855 1368.2 462.671C1368.2 529.486 1419.67 578.558 1491.16 578.558C1576.36 578.558 1605.02 518.177 1605.02 503.098C1605.02 497.639 1600.47 494.909 1596.37 494.909C1594.1 494.909 1591.82 495.819 1590.01 497.638C1574.08 515.837 1549 527.147 1524.89 527.147V527.212ZM1464.77 484.574C1459.77 470.925 1457.04 453.636 1457.04 432.708C1457.04 395.01 1466.59 374.147 1485.7 374.147C1501.62 374.147 1510.26 386.366 1510.26 409.114C1510.26 444.082 1489.79 464.946 1464.71 484.574H1464.77ZM1030.85 574.203C1046.77 573.488 1058.14 573.033 1069.58 573.033C1080.95 572.838 1092.78 573.293 1108.31 574.203C1116.04 533.321 1143.41 497.314 1158.68 452.792L1201.96 574.203C1217.88 573.488 1229.25 573.033 1240.69 573.033C1252.07 572.838 1263.89 573.293 1279.43 574.203L1345 391.761C1351.37 373.562 1371.84 373.562 1371.84 366.737C1371.84 361.278 1358.19 350.813 1354.55 351.268C1350 351.983 1338.63 352.438 1327.71 352.438C1316.34 352.633 1305.42 352.178 1300.87 351.268C1297.23 350.813 1292.23 361.278 1292.23 366.737C1292.23 373.562 1316.79 373.562 1310.43 391.761L1270.33 505.438L1230.23 391.761C1223.86 373.562 1248.43 373.562 1248.43 366.737C1248.43 361.278 1243.42 351.268 1239.78 351.268C1222.04 351.983 1201.5 352.438 1181.49 352.438C1161.02 352.633 1141.13 352.178 1122.93 351.268C1118.84 351.268 1114.29 361.278 1114.29 366.737C1114.29 373.562 1130.21 373.562 1136.58 391.761C1144.31 422.634 1114.75 464.101 1099.21 504.528L1059.12 391.761C1052.75 373.562 1077.31 373.562 1077.31 366.737C1077.31 361.278 1072.31 351.268 1068.67 351.268C1050.93 351.983 1030.39 352.438 1009.92 352.438C989.448 352.633 969.366 352.178 951.17 351.268C947.53 351.268 942.981 361.278 942.981 366.737C942.981 373.562 958.903 373.562 965.272 391.761L1030.85 574.203ZM861.681 514.927C861.681 533.971 844.849 545.8 818.398 545.8C752.435 545.8 714.417 469.365 705.708 469.365C700.249 469.365 690.241 478.92 690.241 482.56C690.241 486.199 704.799 553.08 706.618 559.904C708.893 568.744 712.532 574.203 718.446 574.203C725.66 574.203 729.299 570.109 740.672 570.109C756.529 569.914 770.567 578.558 813.329 578.558C896.644 578.558 943.566 544.825 943.566 485.289C943.566 374.212 782.33 383.831 782.33 326.895C782.33 309.151 798.707 296.022 820.608 296.022C874.353 296.022 910.357 363.358 919 363.358C924.459 363.358 934.013 353.803 934.013 350.163C934.013 346.524 924.459 288.742 922.185 281.918C919.91 273.079 916.726 267.619 910.812 267.619C903.078 267.619 899.894 272.169 888.521 272.169C872.599 272.364 855.767 263.199 814.759 263.199C744.247 263.199 699.34 299.662 699.34 356.468C699.34 470.275 861.226 462.476 861.681 514.927ZM1656.88 383.896C1650.05 390.721 1645.77 399.3 1645.77 410.089C1645.77 428.353 1655.45 434.528 1673.32 434.528C1684.56 434.528 1693.73 430.693 1698.08 422.504C1693.21 426.468 1686.32 428.353 1678.45 428.353C1660.65 428.353 1650.9 422.179 1650.9 403.915C1650.9 396.18 1653.11 389.551 1656.88 383.896ZM1729.54 531.696C1717.58 531.696 1707.5 524.417 1707.5 510.378C1707.5 485.874 1737.85 482.235 1763.98 472.745V478.205C1763.98 509.013 1746.56 531.696 1729.54 531.696Z" fill="#18191B"/>
<path d="M2366.88 310.907C2366.88 299.533 2372.34 300.897 2381.43 300.897C2446.55 300.897 2450.19 363.293 2458.84 363.293C2464.29 363.293 2474.3 358.289 2474.3 354.649C2474.3 351.009 2481.13 287.703 2481.13 278.149C2481.13 269.96 2475.67 267.23 2466.57 267.685C2419.65 268.595 2372.27 269.05 2325.48 269.05C2278.69 269.05 2231.77 268.595 2184.39 267.685C2174.84 267.23 2170.29 269.96 2168.47 281.789C2167.56 287.703 2158.91 351.009 2158.91 354.649C2158.91 358.744 2168.92 363.293 2174.38 363.293C2183.02 363.293 2204.86 300.897 2257.31 300.897C2269.59 300.897 2275.05 304.082 2275.05 310.907V533.647C2275.05 553.211 2250.48 551.846 2250.48 558.67C2250.48 564.13 2255.03 574.139 2258.67 574.139C2276.87 573.229 2298.77 572.774 2321 572.774C2343.22 572.774 2365.51 573.229 2383.32 574.139C2386.96 574.139 2391.96 564.13 2391.96 558.67C2391.96 551.846 2366.94 553.211 2366.94 533.647V310.907H2366.88ZM3073.82 288.938C3067 288.938 3031.9 352.894 2985.44 357.444C2981.8 357.899 2976.79 366.933 2976.79 372.328C2976.79 379.542 3001.81 378.177 3001.81 397.286V503.034C3001.81 548.596 3031.38 578.624 3074.21 578.624C3141.15 578.624 3171.24 517.138 3171.24 502.124C3171.24 498.484 3157.14 494.39 3154.41 497.574C3136.66 518.048 3123.47 526.692 3110.67 526.692C3097.87 526.692 3089.29 518.048 3089.29 492.505V381.297C3108.39 381.752 3135.3 382.207 3147.13 383.117C3157.59 384.027 3161.23 369.988 3161.23 356.079C3161.23 353.349 3159.41 351.269 3154.86 351.269L3089.29 355.169V297.713C3089.29 294.073 3079.28 288.938 3073.82 288.938ZM2715.28 372.653C2711.64 373.108 2707.09 382.207 2707.09 387.667C2707.09 394.946 2727.11 393.581 2727.11 412.69V533.842C2727.11 553.406 2707.09 552.041 2707.09 559.32C2707.09 564.78 2711.64 574.334 2715.28 574.334C2733.48 573.424 2752.19 572.969 2770.84 572.969C2789.5 572.969 2808.67 573.424 2826.41 574.334C2829.79 574.334 2834.79 564.78 2834.79 559.32C2834.86 552.041 2814.58 553.406 2814.58 533.842V459.162C2814.58 428.224 2831.8 395.856 2848.57 395.856C2863.06 395.856 2869.82 406.775 2869.82 430.044V533.907C2869.82 553.471 2850 552.106 2850 559.385C2850 564.845 2854.48 574.399 2858.12 574.399C2876.26 573.489 2894.91 573.034 2913.56 573.034C2932.21 573.034 2951.38 573.489 2969.12 574.399C2973.02 574.399 2978.09 564.845 2978.09 559.385C2977.83 552.106 2957.36 553.471 2957.36 533.907V422.309C2957.36 376.747 2927.86 346.849 2885.16 346.849C2867.48 346.849 2837.85 363.943 2814.78 384.482V359.913C2814.78 356.274 2805.22 351.269 2799.76 351.269C2792.49 351.269 2762.07 368.103 2715.8 372.653H2715.54H2715.28ZM2611.56 527.277C2590.63 527.277 2573.28 519.153 2561.91 503.684C2605.64 499.134 2677.13 474.176 2677.13 425.949C2677.13 381.882 2632.03 346.849 2573.28 346.849C2504.98 346.849 2454.87 395.921 2454.87 462.737C2454.87 529.552 2506.34 578.624 2577.83 578.624C2663.03 578.624 2691.69 518.243 2691.69 503.164C2691.69 497.704 2687.14 494.974 2683.05 494.974C2680.77 494.974 2678.5 495.884 2676.68 497.704C2660.75 515.903 2635.67 527.212 2611.56 527.212V527.277ZM2551.44 484.64C2546.44 470.991 2543.71 453.702 2543.71 432.774C2543.71 395.076 2553.26 374.213 2572.37 374.213C2588.29 374.213 2596.94 386.432 2596.94 409.18C2596.94 444.148 2576.46 465.011 2551.38 484.64H2551.44Z" fill="#18191B"/>
<path d="M460.507 143.609H441.336V196.386H460.507V143.609Z" fill="#FF9933"/>
<path fill-rule="evenodd" clip-rule="evenodd" d="M264.503 156.41C224.665 156.41 157.467 165.64 53.8105 198.917C121.009 207.432 176.054 215.751 264.503 215.751C352.952 215.751 407.997 207.432 475.195 198.917C371.539 165.64 304.406 156.41 264.503 156.41Z" fill="#FF9933"/>
<path fill-rule="evenodd" clip-rule="evenodd" d="M528.94 420.942C528.94 381.1 519.712 313.895 486.438 210.227C477.924 277.432 469.606 332.483 469.606 420.942C469.606 509.402 477.924 564.453 486.438 631.658C519.712 527.99 528.94 460.85 528.94 420.942Z" fill="#FF9933"/>
<path fill-rule="evenodd" clip-rule="evenodd" d="M450.889 138.535C457.258 138.535 462.457 138.73 462.457 138.99V141.46C462.457 141.46 457.258 141.915 450.889 141.915C444.52 141.915 439.321 141.72 439.321 141.46V138.99C439.321 138.99 444.52 138.535 450.889 138.535Z" fill="#FF9933"/>
<path fill-rule="evenodd" clip-rule="evenodd" d="M450.629 106.039C474.155 98.3697 487.997 70.7465 464.017 50.5329C456.803 44.4883 442.116 37.2738 439.776 27.6544C436.852 15.6952 451.279 1.59115 472.4 1.39616C438.801 -7.57324 413.326 28.7593 443.545 50.8578C451.604 56.7725 465.186 63.337 466.876 74.6463C469.216 90.5702 453.489 100.71 450.629 106.039ZM457.648 129.893C452.709 125.733 444.39 121.573 442.701 113.774C439.126 97.1347 468.631 90.1802 459.143 70.2915C456.283 64.247 447.965 59.1773 438.801 58.0724C443.155 62.6871 461.612 72.3714 448.874 86.0855C445.17 90.1152 444.26 90.4402 441.141 94.5999C428.338 111.629 439.386 127.228 457.713 129.893H457.648Z" fill="#999999"/>
<path fill-rule="evenodd" clip-rule="evenodd" d="M53.8105 642.967C121.009 634.452 176.054 626.133 264.503 626.133C352.952 626.133 407.997 634.452 475.195 642.967H53.8105Z" fill="#FF9933"/>
<path fill-rule="evenodd" clip-rule="evenodd" d="M0 420.942C0 381.1 9.22835 313.895 42.5024 210.227C51.0159 277.432 59.3344 332.483 59.3344 420.942C59.3344 509.402 51.0159 564.453 42.5024 631.658C9.22835 527.99 0 460.785 0 420.942Z" fill="#FF9933"/>
<path fill-rule="evenodd" clip-rule="evenodd" d="M53.8105 642.97C116.914 628.931 197.565 613.982 267.752 613.982C337.94 613.982 418.2 628.021 475.195 642.97L264.503 420.945L53.8105 642.97Z" fill="url(#paint0_linear_4121_70)"/>
<path fill-rule="evenodd" clip-rule="evenodd" d="M42.5024 210.227C56.5399 273.337 71.4873 353.997 71.4873 424.192C71.4873 494.388 57.4498 574.657 42.5024 631.658L264.503 420.942L42.5024 210.227Z" fill="url(#paint1_linear_4121_70)"/>
<path fill-rule="evenodd" clip-rule="evenodd" d="M53.8105 198.918C116.914 212.957 197.565 227.906 267.752 227.906C337.94 227.906 418.2 213.867 475.195 198.918L264.503 420.943L53.8105 198.918Z" fill="url(#paint2_linear_4121_70)"/>
<path fill-rule="evenodd" clip-rule="evenodd" d="M486.438 210.227C472.4 273.337 457.453 353.997 457.453 424.192C457.453 494.388 471.49 574.657 486.438 631.658L264.438 420.942L486.438 210.227Z" fill="url(#paint3_linear_4121_70)"/>
<path d="M3178 578.623V553.6H3169.09V548.53H3193.01V553.6H3184.11V578.623H3178ZM3196.84 578.623V548.465H3206.01L3211.4 569.003L3216.73 548.465H3225.89V578.623H3220.24V554.899L3214.26 578.623H3208.41L3202.5 554.899V578.623H3196.84Z" fill="black"/>
<defs>
<linearGradient id="paint0_linear_4121_70" x1="250.25" y1="446.04" x2="250.25" y2="637.732" gradientUnits="userSpaceOnUse">
<stop stop-color="#FF0000"/>
<stop offset="1" stop-color="#FF9933"/>
</linearGradient>
<linearGradient id="paint1_linear_4121_70" x1="250.231" y1="417.218" x2="58.5422" y2="417.218" gradientUnits="userSpaceOnUse">
<stop stop-color="#FF0000"/>
<stop offset="1" stop-color="#FF9933"/>
</linearGradient>
<linearGradient id="paint2_linear_4121_70" x1="250.25" y1="417.199" x2="250.25" y2="225.489" gradientUnits="userSpaceOnUse">
<stop stop-color="#FF0000"/>
<stop offset="1" stop-color="#FF9933"/>
</linearGradient>
<linearGradient id="paint3_linear_4121_70" x1="250.25" y1="417.218" x2="441.92" y2="417.218" gradientUnits="userSpaceOnUse">
<stop stop-color="#FF0000"/>
<stop offset="1" stop-color="#FF9933"/>
</linearGradient>
</defs>
</svg>
