<svg width="89" height="24" viewBox="0 0 89 24" fill="none" xmlns="http://www.w3.org/2000/svg">
<path d="M72.8998 9.09998L75.3998 14.6L77.9998 9.09998H82.5998L75.3998 23.6L68.2998 9.09998H72.8998Z" fill="#FAF7F4"/>
<path d="M14.4 6.30002V2.40002H0V6.30002H4.9V22.8H9.5V6.30002H14.4Z" fill="#FAF7F4"/>
<path d="M27.3999 22.8V9.09998H22.9999V18.7C22.7999 18.8 21.8999 19.5 20.8999 19.5C20.1999 19.5 19.7999 19.2 19.6999 19.1C19.2999 18.7 19.1999 18 19.1999 16.5V9.09998H14.7999V16.6C14.7999 18.4 14.6999 20.4 16.2999 21.9C17.1999 22.8 18.3999 23.2 19.7999 23.2C21.9999 23.2 23.6999 21.7 23.7999 21.6V22.8H27.3999Z" fill="#FAF7F4"/>
<path d="M35.2999 0.400024H30.8999V22.8H35.2999V0.400024Z" fill="#FAF7F4"/>
<path d="M43.1999 9.09998H38.7999V22.8H43.1999V9.09998Z" fill="#FAF7F4"/>
<path d="M43.4 4.59993C43.4 3.29993 42.4 2.29993 41.1 2.29993C39.8 2.29993 38.7 3.29993 38.7 4.59993C38.7 5.89993 39.8 6.99993 41.1 6.99993C42.4 6.89993 43.4 5.89993 43.4 4.59993Z" fill="#FAF7F4"/>
<path d="M60.5 22.8L54.9 15.2L60.5 9.10002H55.4L51.2 13.9V0.400024H46.7V22.8H51.2V16.7L55.4 22.8H60.5Z" fill="#FAF7F4"/>
<path d="M66.9999 4.59993C66.9999 3.29993 65.9999 2.29993 64.6999 2.29993C63.3999 2.29993 62.3999 3.29993 62.3999 4.59993C62.3999 5.89993 63.4999 6.99993 64.6999 6.99993C65.9999 6.89993 66.9999 5.89993 66.9999 4.59993Z" fill="#FAF7F4"/>
<path d="M66.8999 9.09998H62.4999V22.8H66.8999V9.09998Z" fill="#FAF7F4"/>
<path d="M88.4999 4.59993C88.4999 3.29993 87.4999 2.29993 86.1999 2.29993C84.8999 2.29993 83.7999 3.29993 83.7999 4.59993C83.7999 5.89993 84.8999 6.99993 86.1999 6.99993C87.3999 6.89993 88.4999 5.89993 88.4999 4.59993Z" fill="#FAF7F4"/>
<path d="M88.2999 9.09998H83.8999V22.8H88.2999V9.09998Z" fill="#FAF7F4"/>
</svg>
